<svg width="208" height="239" viewBox="0 0 208 239" fill="none" xmlns="http://www.w3.org/2000/svg">
<path d="M27.392 200.8H29.456V212H27.744L21.568 204.416V212H19.504V200.8H21.216L27.392 208.384V200.8ZM36.1051 212.112C33.4811 212.112 31.5611 210.288 31.5611 207.728C31.5611 205.168 33.4811 203.36 36.1051 203.36C38.7611 203.36 40.6651 205.168 40.6651 207.728C40.6651 210.288 38.7611 212.112 36.1051 212.112ZM36.1051 210.4C37.5611 210.4 38.6491 209.36 38.6491 207.728C38.6491 206.096 37.5611 205.056 36.1051 205.056C34.6651 205.056 33.5771 206.096 33.5771 207.728C33.5771 209.36 34.6651 210.4 36.1051 210.4ZM52.0075 212.16C48.9355 212.16 47.0955 210.384 47.0955 207.12V200.8H49.1755V207.04C49.1755 209.344 50.2155 210.336 52.0235 210.336C53.8315 210.336 54.8555 209.344 54.8555 207.04V200.8H56.9035V207.12C56.9035 210.384 55.0635 212.16 52.0075 212.16ZM64.3605 203.36C66.8565 203.36 68.6965 205.088 68.6965 207.728C68.6965 210.384 66.8565 212.112 64.3605 212.112C63.2725 212.112 62.3125 211.744 61.6245 210.96V215.104H59.6245V203.456H61.5285V204.576C62.2005 203.76 63.1925 203.36 64.3605 203.36ZM64.1365 210.4C65.5765 210.4 66.6645 209.36 66.6645 207.728C66.6645 206.096 65.5765 205.056 64.1365 205.056C62.6965 205.056 61.5925 206.096 61.5925 207.728C61.5925 209.36 62.6965 210.4 64.1365 210.4ZM70.5933 212V200.128H72.5933V212H70.5933ZM79.0583 212.112C76.4343 212.112 74.5143 210.288 74.5143 207.728C74.5143 205.168 76.4343 203.36 79.0583 203.36C81.7143 203.36 83.6183 205.168 83.6183 207.728C83.6183 210.288 81.7143 212.112 79.0583 212.112ZM79.0583 210.4C80.5143 210.4 81.6023 209.36 81.6023 207.728C81.6023 206.096 80.5143 205.056 79.0583 205.056C77.6183 205.056 76.5303 206.096 76.5303 207.728C76.5303 209.36 77.6183 210.4 79.0583 210.4ZM88.6854 203.36C91.1494 203.36 92.5734 204.528 92.5734 206.992V212H90.6854V210.96C90.2054 211.696 89.2774 212.112 87.9974 212.112C86.0454 212.112 84.8134 211.04 84.8134 209.552C84.8134 208.128 85.7734 207.008 88.3654 207.008H90.5734V206.88C90.5734 205.712 89.8694 205.024 88.4454 205.024C87.4854 205.024 86.4934 205.344 85.8534 205.872L85.0694 204.416C85.9814 203.712 87.3094 203.36 88.6854 203.36ZM88.4134 210.656C89.3894 210.656 90.2374 210.208 90.5734 209.328V208.336H88.5094C87.1494 208.336 86.7814 208.848 86.7814 209.472C86.7814 210.192 87.3894 210.656 88.4134 210.656ZM101.586 200.128H103.586V212H101.666V210.896C100.994 211.712 100.002 212.112 98.8343 212.112C96.3543 212.112 94.5143 210.384 94.5143 207.728C94.5143 205.072 96.3543 203.36 98.8343 203.36C99.9383 203.36 100.914 203.728 101.586 204.512V200.128ZM99.0743 210.4C100.514 210.4 101.618 209.36 101.618 207.728C101.618 206.096 100.514 205.056 99.0743 205.056C97.6343 205.056 96.5303 206.096 96.5303 207.728C96.5303 209.36 97.6343 210.4 99.0743 210.4ZM114.235 207.776C114.235 207.936 114.219 208.176 114.203 208.368H107.499C107.739 209.616 108.779 210.416 110.267 210.416C111.227 210.416 111.979 210.112 112.587 209.488L113.659 210.72C112.891 211.632 111.691 212.112 110.219 212.112C107.355 212.112 105.499 210.272 105.499 207.728C105.499 205.184 107.371 203.36 109.915 203.36C112.411 203.36 114.235 205.104 114.235 207.776ZM109.915 204.96C108.619 204.96 107.675 205.792 107.483 207.04H112.331C112.171 205.808 111.227 204.96 109.915 204.96ZM122.524 200.128H124.524V212H122.604V210.896C121.932 211.712 120.94 212.112 119.772 212.112C117.292 212.112 115.452 210.384 115.452 207.728C115.452 205.072 117.292 203.36 119.772 203.36C120.876 203.36 121.852 203.728 122.524 204.512V200.128ZM120.012 210.4C121.452 210.4 122.556 209.36 122.556 207.728C122.556 206.096 121.452 205.056 120.012 205.056C118.572 205.056 117.468 206.096 117.468 207.728C117.468 209.36 118.572 210.4 120.012 210.4ZM144.01 212H142.042L142.026 204.576L138.346 210.72H137.418L133.738 204.672V212H131.754V200.8H133.466L137.914 208.224L142.282 200.8H143.994L144.01 212ZM154.875 207.776C154.875 207.936 154.859 208.176 154.843 208.368H148.139C148.379 209.616 149.419 210.416 150.907 210.416C151.867 210.416 152.619 210.112 153.227 209.488L154.299 210.72C153.531 211.632 152.331 212.112 150.859 212.112C147.995 212.112 146.139 210.272 146.139 207.728C146.139 205.184 148.011 203.36 150.555 203.36C153.051 203.36 154.875 205.104 154.875 207.776ZM150.555 204.96C149.259 204.96 148.315 205.792 148.123 207.04H152.971C152.811 205.808 151.867 204.96 150.555 204.96ZM163.164 200.128H165.164V212H163.244V210.896C162.572 211.712 161.58 212.112 160.412 212.112C157.932 212.112 156.092 210.384 156.092 207.728C156.092 205.072 157.932 203.36 160.412 203.36C161.516 203.36 162.492 203.728 163.164 204.512V200.128ZM160.652 210.4C162.092 210.4 163.196 209.36 163.196 207.728C163.196 206.096 162.092 205.056 160.652 205.056C159.212 205.056 158.108 206.096 158.108 207.728C158.108 209.36 159.212 210.4 160.652 210.4ZM168.789 202.048C168.053 202.048 167.509 201.52 167.509 200.848C167.509 200.176 168.053 199.648 168.789 199.648C169.525 199.648 170.069 200.144 170.069 200.8C170.069 201.504 169.541 202.048 168.789 202.048ZM167.781 212V203.456H169.781V212H167.781ZM175.67 203.36C178.134 203.36 179.558 204.528 179.558 206.992V212H177.67V210.96C177.19 211.696 176.262 212.112 174.982 212.112C173.03 212.112 171.798 211.04 171.798 209.552C171.798 208.128 172.758 207.008 175.35 207.008H177.558V206.88C177.558 205.712 176.854 205.024 175.43 205.024C174.47 205.024 173.478 205.344 172.838 205.872L172.054 204.416C172.966 203.712 174.294 203.36 175.67 203.36ZM175.398 210.656C176.374 210.656 177.222 210.208 177.558 209.328V208.336H175.494C174.134 208.336 173.766 208.848 173.766 209.472C173.766 210.192 174.374 210.656 175.398 210.656Z" fill="#7E7E7E"/>
<path d="M8.764 226.2H9.786V236H8.932L2.632 228.048V236H1.596V226.2H2.45L8.764 234.152V226.2ZM15.7847 236.07C13.6287 236.07 12.0327 234.502 12.0327 232.318C12.0327 230.134 13.6287 228.58 15.7847 228.58C17.9407 228.58 19.5227 230.134 19.5227 232.318C19.5227 234.502 17.9407 236.07 15.7847 236.07ZM15.7847 235.188C17.3527 235.188 18.5147 234.04 18.5147 232.318C18.5147 230.596 17.3527 229.448 15.7847 229.448C14.2167 229.448 13.0407 230.596 13.0407 232.318C13.0407 234.04 14.2167 235.188 15.7847 235.188ZM29.3741 236.084C26.8681 236.084 25.3421 234.628 25.3421 231.814V226.2H26.3781V231.772C26.3781 234.096 27.4701 235.16 29.3741 235.16C31.2921 235.16 32.3841 234.096 32.3841 231.772V226.2H33.3921V231.814C33.3921 234.628 31.8801 236.084 29.3741 236.084ZM40.098 228.58C42.198 228.58 43.766 230.092 43.766 232.318C43.766 234.558 42.198 236.07 40.098 236.07C38.922 236.07 37.914 235.566 37.298 234.614V238.716H36.304V228.636H37.256V230.092C37.858 229.112 38.88 228.58 40.098 228.58ZM40.028 235.188C41.582 235.188 42.772 234.04 42.772 232.318C42.772 230.61 41.582 229.448 40.028 229.448C38.46 229.448 37.284 230.61 37.284 232.318C37.284 234.04 38.46 235.188 40.028 235.188ZM45.7923 236V225.612H46.7863V236H45.7923ZM52.562 236.07C50.406 236.07 48.81 234.502 48.81 232.318C48.81 230.134 50.406 228.58 52.562 228.58C54.718 228.58 56.3 230.134 56.3 232.318C56.3 234.502 54.718 236.07 52.562 236.07ZM52.562 235.188C54.13 235.188 55.292 234.04 55.292 232.318C55.292 230.596 54.13 229.448 52.562 229.448C50.994 229.448 49.818 230.596 49.818 232.318C49.818 234.04 50.994 235.188 52.562 235.188ZM60.8643 228.58C62.7683 228.58 63.8463 229.532 63.8463 231.436V236H62.8943V234.852C62.4463 235.608 61.5783 236.07 60.3603 236.07C58.6943 236.07 57.6723 235.202 57.6723 233.928C57.6723 232.794 58.4003 231.842 60.5143 231.842H62.8523V231.394C62.8523 230.134 62.1383 229.448 60.7663 229.448C59.8143 229.448 58.9183 229.784 58.3163 230.316L57.8683 229.574C58.6103 228.944 59.7023 228.58 60.8643 228.58ZM60.5143 235.286C61.6343 235.286 62.4603 234.754 62.8523 233.788V232.584H60.5423C59.1143 232.584 58.6523 233.144 58.6523 233.9C58.6523 234.754 59.3383 235.286 60.5143 235.286ZM72.2995 225.612H73.2935V236H72.3415V234.544C71.7395 235.538 70.7175 236.07 69.4995 236.07C67.3995 236.07 65.8315 234.544 65.8315 232.318C65.8315 230.092 67.3995 228.58 69.4995 228.58C70.6755 228.58 71.6835 229.084 72.2995 230.036V225.612ZM69.5835 235.188C71.1375 235.188 72.3135 234.04 72.3135 232.318C72.3135 230.596 71.1375 229.448 69.5835 229.448C68.0155 229.448 66.8395 230.596 66.8395 232.318C66.8395 234.04 68.0155 235.188 69.5835 235.188ZM82.4878 232.318C82.4878 232.402 82.4738 232.514 82.4738 232.626H76.3138C76.4258 234.166 77.6018 235.188 79.2118 235.188C80.1078 235.188 80.9058 234.866 81.4658 234.222L82.0258 234.866C81.3678 235.65 80.3458 236.07 79.1838 236.07C76.8878 236.07 75.3198 234.502 75.3198 232.318C75.3198 230.134 76.8458 228.58 78.9178 228.58C80.9898 228.58 82.4878 230.106 82.4878 232.318ZM78.9178 229.434C77.4898 229.434 76.4398 230.442 76.3138 231.884H81.5358C81.4098 230.442 80.3598 229.434 78.9178 229.434ZM90.237 225.612H91.231V236H90.279V234.544C89.677 235.538 88.655 236.07 87.437 236.07C85.337 236.07 83.769 234.544 83.769 232.318C83.769 230.092 85.337 228.58 87.437 228.58C88.613 228.58 89.621 229.084 90.237 230.036V225.612ZM87.521 235.188C89.075 235.188 90.251 234.04 90.251 232.318C90.251 230.596 89.075 229.448 87.521 229.448C85.953 229.448 84.777 230.596 84.777 232.318C84.777 234.04 85.953 235.188 87.521 235.188ZM107.197 226.2H108.051V236H107.057V228.16L103.207 234.754H102.717L98.8673 228.202V236H97.8733V226.2H98.7273L102.983 233.466L107.197 226.2ZM117.46 232.318C117.46 232.402 117.446 232.514 117.446 232.626H111.286C111.398 234.166 112.574 235.188 114.184 235.188C115.08 235.188 115.878 234.866 116.438 234.222L116.998 234.866C116.34 235.65 115.318 236.07 114.156 236.07C111.86 236.07 110.292 234.502 110.292 232.318C110.292 230.134 111.818 228.58 113.89 228.58C115.962 228.58 117.46 230.106 117.46 232.318ZM113.89 229.434C112.462 229.434 111.412 230.442 111.286 231.884H116.508C116.382 230.442 115.332 229.434 113.89 229.434ZM125.21 225.612H126.204V236H125.252V234.544C124.65 235.538 123.628 236.07 122.41 236.07C120.31 236.07 118.742 234.544 118.742 232.318C118.742 230.092 120.31 228.58 122.41 228.58C123.586 228.58 124.594 229.084 125.21 230.036V225.612ZM122.494 235.188C124.048 235.188 125.224 234.04 125.224 232.318C125.224 230.596 124.048 229.448 122.494 229.448C120.926 229.448 119.75 230.596 119.75 232.318C119.75 234.04 120.926 235.188 122.494 235.188ZM129.476 227.026C129.07 227.026 128.748 226.704 128.748 226.312C128.748 225.934 129.07 225.612 129.476 225.612C129.882 225.612 130.204 225.92 130.204 226.298C130.204 226.704 129.896 227.026 129.476 227.026ZM128.972 236V228.636H129.966V236H128.972ZM135.308 228.58C137.212 228.58 138.29 229.532 138.29 231.436V236H137.338V234.852C136.89 235.608 136.022 236.07 134.804 236.07C133.138 236.07 132.116 235.202 132.116 233.928C132.116 232.794 132.844 231.842 134.958 231.842H137.296V231.394C137.296 230.134 136.582 229.448 135.21 229.448C134.258 229.448 133.362 229.784 132.76 230.316L132.312 229.574C133.054 228.944 134.146 228.58 135.308 228.58ZM134.958 235.286C136.078 235.286 136.904 234.754 137.296 233.788V232.584H134.986C133.558 232.584 133.096 233.144 133.096 233.9C133.096 234.754 133.782 235.286 134.958 235.286ZM151.584 227.096H145.9V230.946H150.968V231.842H145.9V236H144.864V226.2H151.584V227.096ZM156.277 236.07C154.121 236.07 152.525 234.502 152.525 232.318C152.525 230.134 154.121 228.58 156.277 228.58C158.433 228.58 160.015 230.134 160.015 232.318C160.015 234.502 158.433 236.07 156.277 236.07ZM156.277 235.188C157.845 235.188 159.007 234.04 159.007 232.318C159.007 230.596 157.845 229.448 156.277 229.448C154.709 229.448 153.533 230.596 153.533 232.318C153.533 234.04 154.709 235.188 156.277 235.188ZM167.686 228.636H168.68V236H167.728V234.656C167.21 235.552 166.258 236.07 165.082 236.07C163.206 236.07 161.974 235.02 161.974 232.906V228.636H162.968V232.808C162.968 234.376 163.78 235.174 165.18 235.174C166.72 235.174 167.686 234.18 167.686 232.5V228.636ZM175.216 228.58C177.008 228.58 178.24 229.616 178.24 231.73V236H177.246V231.828C177.246 230.274 176.434 229.476 175.034 229.476C173.452 229.476 172.458 230.456 172.458 232.136V236H171.464V228.636H172.416V229.994C172.948 229.098 173.942 228.58 175.216 228.58ZM186.692 225.612H187.686V236H186.734V234.544C186.132 235.538 185.11 236.07 183.892 236.07C181.792 236.07 180.224 234.544 180.224 232.318C180.224 230.092 181.792 228.58 183.892 228.58C185.068 228.58 186.076 229.084 186.692 230.036V225.612ZM183.976 235.188C185.53 235.188 186.706 234.04 186.706 232.318C186.706 230.596 185.53 229.448 183.976 229.448C182.408 229.448 181.232 230.596 181.232 232.318C181.232 234.04 182.408 235.188 183.976 235.188ZM196.88 232.318C196.88 232.402 196.866 232.514 196.866 232.626H190.706C190.818 234.166 191.994 235.188 193.604 235.188C194.5 235.188 195.298 234.866 195.858 234.222L196.418 234.866C195.76 235.65 194.738 236.07 193.576 236.07C191.28 236.07 189.712 234.502 189.712 232.318C189.712 230.134 191.238 228.58 193.31 228.58C195.382 228.58 196.88 230.106 196.88 232.318ZM193.31 229.434C191.882 229.434 190.832 230.442 190.706 231.884H195.928C195.802 230.442 194.752 229.434 193.31 229.434ZM204.63 225.612H205.624V236H204.672V234.544C204.07 235.538 203.048 236.07 201.83 236.07C199.73 236.07 198.162 234.544 198.162 232.318C198.162 230.092 199.73 228.58 201.83 228.58C203.006 228.58 204.014 229.084 204.63 230.036V225.612ZM201.914 235.188C203.468 235.188 204.644 234.04 204.644 232.318C204.644 230.596 203.468 229.448 201.914 229.448C200.346 229.448 199.17 230.596 199.17 232.318C199.17 234.04 200.346 235.188 201.914 235.188Z" fill="#7E7E7E"/>
<g clip-path="url(#clip0_182_12151)">
<path opacity="0.4" d="M180.82 128.953L156.824 72.8333C152.454 62.56 145.937 56.7333 138.462 56.327C130.987 55.9206 123.972 61.0803 118.529 70.8936L103.962 97.037C102.854 99.4621 101.159 101.573 99.031 103.179C96.9028 104.786 94.408 105.836 91.772 106.237C89.0969 106.313 86.4468 105.704 84.0722 104.47C81.6977 103.236 79.6772 101.416 78.202 99.1836L76.5153 97.037C74.4074 93.9618 71.5449 91.4796 68.2021 89.8283C64.8594 88.1771 61.1485 87.4122 57.4253 87.607C53.7495 88.1938 50.286 89.7145 47.3663 92.0234C44.4466 94.3323 42.1686 97.3521 40.7503 100.794L27.487 127.267C25.1474 131.922 24.0384 137.099 24.2653 142.304C24.4923 147.51 26.0477 152.571 28.7836 157.005C31.5194 161.439 35.3447 165.099 39.8952 167.637C44.4457 170.175 49.57 171.506 54.7803 171.503H152.607C157.666 171.506 162.646 170.254 167.102 167.859C171.557 165.464 175.349 162.001 178.137 157.78C180.979 153.591 182.716 148.752 183.185 143.712C183.654 138.672 182.841 133.595 180.82 128.953Z" fill="#B6B6B6"/>
<path d="M91.3501 38.3333C91.3501 43.4584 89.8303 48.4685 86.9829 52.7299C84.1355 56.9914 80.0884 60.3127 75.3534 62.2741C70.6183 64.2354 65.408 64.7485 60.3813 63.7487C55.3546 62.7488 50.7373 60.2808 47.1133 56.6567C43.4892 53.0327 41.0212 48.4154 40.0214 43.3887C39.0215 38.362 39.5347 33.1517 41.496 28.4167C43.4573 23.6816 46.7787 19.6345 51.0401 16.7871C55.3015 13.9397 60.3116 12.4199 65.4368 12.4199C72.3094 12.4199 78.9006 15.1501 83.7603 20.0098C88.62 24.8695 91.3501 31.4606 91.3501 38.3333Z" fill="#B6B6B6"/>
</g>
<defs>
<clipPath id="clip0_182_12151">
<rect width="184" height="184" fill="white" transform="translate(12)"/>
</clipPath>
</defs>
</svg>
